<svg id="Layer_1" data-name="Layer 1" xmlns="http://www.w3.org/2000/svg" viewBox="0 0 841.89 841.89"><defs><style>.cls-1{fill:#f26522;}</style></defs><path class="cls-1" d="M394.66,327.56a1.4,1.4,0,0,1,1.4,1.4V406.4l-12.53-13.09-27.31-28.08a1.4,1.4,0,0,0-2.4,1v38.67a1.4,1.4,0,0,1-1.4,1.39H340.86a1.39,1.39,0,0,1-1.4-1.39V327.56L352,340.65l27.31,28.08a1.4,1.4,0,0,0,2.4-1V329a1.39,1.39,0,0,1,1.4-1.4Zm-13,0h0Z"/><path class="cls-1" d="M472.66,337.13a41.81,41.81,0,1,1-29.57-12.25A41.05,41.05,0,0,1,472.66,337.13Zm-29.57,2.11a27.46,27.46,0,0,0,0,54.92,27.42,27.42,0,0,0,27.46-27.46,27.38,27.38,0,0,0-8-19.29A27,27,0,0,0,443.09,339.24Z"/><path class="cls-1" d="M544.32,327.56a1.56,1.56,0,0,1,1.56,1.56V406.4l-12.53-13.09-27-27.8a1.56,1.56,0,0,0-2.68,1.09v38.1a1.56,1.56,0,0,1-1.56,1.56H490.84a1.56,1.56,0,0,1-1.56-1.56V327.56l12.53,13.09,27,27.8a1.56,1.56,0,0,0,2.68-1.09V329.12a1.56,1.56,0,0,1,1.56-1.56Zm-12.8,0h0Z"/><path class="cls-1" d="M591.5,367.39a1.11,1.11,0,0,1,1.11-1.11h42.54v.14c0,11.68-3.8,21.82-11.55,29.56a42.63,42.63,0,0,1-30.41,12.54,40.27,40.27,0,0,1-29.57-12.25,41.81,41.81,0,0,1,0-59.14,42,42,0,0,1,48.58-7.74,40.09,40.09,0,0,1,14.27,11.9,1.12,1.12,0,0,1-.25,1.57L616.31,350a1.1,1.1,0,0,1-1.52-.24,28.19,28.19,0,0,0-9.07-7.44,26.22,26.22,0,0,0-12.53-3.1,26.92,26.92,0,0,0-19.29,8.17,27.39,27.39,0,0,0,19.29,46.75A28.11,28.11,0,0,0,616,382.68a1.11,1.11,0,0,0-.88-1.78l-22.55-.25a1.11,1.11,0,0,1-1.1-1.11Z"/><path class="cls-1" d="M664.62,380.09a3.14,3.14,0,0,1-1.28,4.27,3.16,3.16,0,1,1-3-5.56A3.14,3.14,0,0,1,664.62,380.09Z"/><path class="cls-1" d="M680.7,391.06a3.16,3.16,0,1,1-3.15-3.16A3.16,3.16,0,0,1,680.7,391.06Z"/><path class="cls-1" d="M710.61,337.13a41.79,41.79,0,1,0,12.26,29.56A41,41,0,0,0,710.61,337.13Zm-8,28.93-22,10.06-.72,9.69a5.75,5.75,0,1,1-5.49.43l-.44-7.07-6.39,2.93a5.76,5.76,0,1,1-2.2-5.06l8.16-5.16-1.43-24.06a9.25,9.25,0,0,1,9.27-9.82l2,0-2.12,29,24.63-15.52,1,1.77A9.26,9.26,0,0,1,702.57,366.06Z"/><path class="cls-1" d="M730.32,329l20.23,42a1.47,1.47,0,0,0,2.66,0l20-42a1.47,1.47,0,0,1,1.33-.84H787a1.47,1.47,0,0,1,1.33,2.11l-30,62.8-6.48,13.66L745.27,393l-30.11-62.8a1.47,1.47,0,0,1,1.33-2.11H729A1.47,1.47,0,0,1,730.32,329Z"/><path class="cls-1" d="M341.3,505a1.3,1.3,0,0,1-1.23-1.73l21.77-61.48,4.73-13.39a1.31,1.31,0,0,1,2.41-.13l6.1,12.67,16.75,34.78,16.9-34.78,6.1-12.67a1.31,1.31,0,0,1,2.41.13L422,441.75l21.77,61.48a1.3,1.3,0,0,1-1.23,1.73H430.07a1.29,1.29,0,0,1-1.23-.86l-13.76-38.58a1.3,1.3,0,0,0-2.38-.17L391.83,505,371,465.36a1.3,1.3,0,0,0-2.38.17L355,504.1a1.3,1.3,0,0,1-1.23.86Z"/><path class="cls-1" d="M463.91,458.5H482a1.67,1.67,0,0,1,1.67,1.67v11a1.67,1.67,0,0,1-1.67,1.67H463.91a1.67,1.67,0,0,0-1.67,1.67v14.26a1.67,1.67,0,0,0,1.67,1.67h27V505H449.55a1.67,1.67,0,0,1-1.67-1.67V427.22a1.67,1.67,0,0,1,1.67-1.67H491v14.37h-27a1.67,1.67,0,0,0-1.67,1.67v15.24A1.67,1.67,0,0,0,463.91,458.5Z"/><path class="cls-1" d="M510.54,425.69h.07l9.08.15a39.6,39.6,0,0,1,28,11.54,39.12,39.12,0,0,1,11.54,28A39.4,39.4,0,0,1,519.69,505H498.17a2,2,0,0,1-2-2V427.69a2,2,0,0,1,2-2Zm0,0,0,16.5v46.42a2,2,0,0,0,2,2h7.16a25.09,25.09,0,0,0,17.74-42.94,24.65,24.65,0,0,0-17.74-7.46h-7.16A2,2,0,0,0,510.54,442.19Z"/><path class="cls-1" d="M580.24,427V503.7A1.26,1.26,0,0,1,579,505H567.14a1.26,1.26,0,0,1-1.27-1.26V427a1.27,1.27,0,0,1,1.27-1.27H579A1.27,1.27,0,0,1,580.24,427Z"/><path class="cls-1" d="M637.88,486.94H611.31a1.05,1.05,0,0,0-.94.6l-7.89,16.82a1,1,0,0,1-.94.6H588.08a1,1,0,0,1-1-1.49l30.42-64.4,5.55-11.7a1,1,0,0,1,1.88,0l5.66,11.57,31.78,64.53a1,1,0,0,1-.93,1.5H648.05a1,1,0,0,1-.94-.58l-8.3-16.86A1,1,0,0,0,637.88,486.94Zm-19.11-13.51H630.1a1,1,0,0,0,.94-1.51l-5.78-11.87a1,1,0,0,0-1.88,0l-5.56,11.88A1,1,0,0,0,618.77,473.43Z"/><path class="cls-1" d="M259.73,527.39a130.7,130.7,0,0,0,54.74-106.62c-.11-70.6-57.17-129-127.76-130.72A130.93,130.93,0,1,0,183,551.86v0H786.63a2.71,2.71,0,0,0,2.71-2.71V530.1a2.71,2.71,0,0,0-2.71-2.71ZM239,350.75a26.31,26.31,0,1,1-29.49,29.53A26.32,26.32,0,0,1,239,350.75Zm-6.85,93.71a26.31,26.31,0,1,1-22.64,22.64A26.33,26.33,0,0,1,232.17,444.46ZM121.59,496.63a26.31,26.31,0,1,1,29.5-29.53A26.32,26.32,0,0,1,121.59,496.63Zm6.85-93.71a26.31,26.31,0,1,1,22.65-22.64A26.33,26.33,0,0,1,128.44,402.92Zm39,21.46a16.07,16.07,0,1,1,15.69,15.27A16.24,16.24,0,0,1,167.48,424.38Z"/></svg>